<svg width="35" height="20" viewBox="0 0 35 20" fill="none" xmlns="http://www.w3.org/2000/svg">
<path d="M15.9192 14.8184C7.1275 12.4627 0.605946 8.29315 1.3529 5.50547C2.09986 2.71778 9.83248 2.36761 18.6242 4.72334C27.4159 7.07907 33.9374 11.2486 33.1905 14.0363C32.4435 16.824 24.7109 17.1742 15.9192 14.8184ZM18.3194 5.86077C11.5088 4.03589 5.51872 4.30715 4.94008 6.46665C4.36145 8.62615 9.41342 11.8561 16.224 13.681C23.0345 15.5059 29.0247 15.2346 29.6033 13.0751C30.1819 10.9156 25.13 7.68565 18.3194 5.86077Z" fill="url(#paint0_linear_196_6)"/>
<path d="M18.7172 19.542C13.576 19.542 9.40811 15.4783 9.40811 10.4656C9.40811 5.4528 13.576 1.38916 18.7172 1.38916C23.8585 1.38916 28.0264 5.4528 28.0264 10.4656C28.0264 15.4783 23.8585 19.542 18.7172 19.542ZM18.7172 2.50805C14.2097 2.50805 10.5557 6.07075 10.5557 10.4656C10.5557 14.8604 14.2097 18.4231 18.7172 18.4231C23.2247 18.4231 26.8788 14.8604 26.8788 10.4656C26.8788 6.07075 23.2247 2.50805 18.7172 2.50805Z" fill="url(#paint1_linear_196_6)"/>
<defs>
<linearGradient id="paint0_linear_196_6" x1="33.1905" y1="14.0363" x2="1.3529" y2="5.50547" gradientUnits="userSpaceOnUse">
<stop stop-color="white"/>
<stop offset="1" stop-color="#E6E6E6" stop-opacity="0"/>
</linearGradient>
<linearGradient id="paint1_linear_196_6" x1="28.0264" y1="10.4656" x2="9.40811" y2="10.4656" gradientUnits="userSpaceOnUse">
<stop stop-color="#F7F7F7" stop-opacity="0.1"/>
<stop offset="1" stop-color="white"/>
</linearGradient>
</defs>
</svg>
