<svg width="25" height="24" viewBox="0 0 25 24" fill="none" xmlns="http://www.w3.org/2000/svg">
<mask id="mask0_196_28" style="mask-type:alpha" maskUnits="userSpaceOnUse" x="0" y="0" width="25" height="24">
<rect x="0.473633" width="24" height="24" fill="#D9D9D9"/>
</mask>
<g mask="url(#mask0_196_28)">
<path d="M12.4736 12C11.3736 12 10.432 11.6083 9.64863 10.825C8.8653 10.0417 8.47363 9.1 8.47363 8C8.47363 6.9 8.8653 5.95833 9.64863 5.175C10.432 4.39167 11.3736 4 12.4736 4C13.5736 4 14.5153 4.39167 15.2986 5.175C16.082 5.95833 16.4736 6.9 16.4736 8C16.4736 9.1 16.082 10.0417 15.2986 10.825C14.5153 11.6083 13.5736 12 12.4736 12ZM4.47363 18V17.2C4.47363 16.6333 4.61947 16.1125 4.91113 15.6375C5.2028 15.1625 5.5903 14.8 6.07363 14.55C7.10697 14.0333 8.15697 13.6458 9.22363 13.3875C10.2903 13.1292 11.3736 13 12.4736 13C13.5736 13 14.657 13.1292 15.7236 13.3875C16.7903 13.6458 17.8403 14.0333 18.8736 14.55C19.357 14.8 19.7445 15.1625 20.0361 15.6375C20.3278 16.1125 20.4736 16.6333 20.4736 17.2V18C20.4736 18.55 20.2778 19.0208 19.8861 19.4125C19.4945 19.8042 19.0236 20 18.4736 20H6.47363C5.92363 20 5.4528 19.8042 5.06113 19.4125C4.66947 19.0208 4.47363 18.55 4.47363 18Z" fill="#FAFAFA"/>
</g>
</svg>
