<svg width="25" height="24" viewBox="0 0 25 24" fill="none" xmlns="http://www.w3.org/2000/svg">
<mask id="mask0_196_25" style="mask-type:alpha" maskUnits="userSpaceOnUse" x="0" y="0" width="25" height="24">
<rect x="0.473633" width="24" height="24" fill="#D9D9D9"/>
</mask>
<g mask="url(#mask0_196_25)">
<path d="M9.97363 16C8.15697 16 6.61947 15.3708 5.36113 14.1125C4.1028 12.8542 3.47363 11.3167 3.47363 9.5C3.47363 7.68333 4.1028 6.14583 5.36113 4.8875C6.61947 3.62917 8.15697 3 9.97363 3C11.7903 3 13.3278 3.62917 14.5861 4.8875C15.8445 6.14583 16.4736 7.68333 16.4736 9.5C16.4736 10.2333 16.357 10.925 16.1236 11.575C15.8903 12.225 15.5736 12.8 15.1736 13.3L20.7736 18.9C20.957 19.0833 21.0486 19.3167 21.0486 19.6C21.0486 19.8833 20.957 20.1167 20.7736 20.3C20.5903 20.4833 20.357 20.575 20.0736 20.575C19.7903 20.575 19.557 20.4833 19.3736 20.3L13.7736 14.7C13.2736 15.1 12.6986 15.4167 12.0486 15.65C11.3986 15.8833 10.707 16 9.97363 16ZM9.97363 14C11.2236 14 12.2861 13.5625 13.1611 12.6875C14.0361 11.8125 14.4736 10.75 14.4736 9.5C14.4736 8.25 14.0361 7.1875 13.1611 6.3125C12.2861 5.4375 11.2236 5 9.97363 5C8.72363 5 7.66113 5.4375 6.78613 6.3125C5.91113 7.1875 5.47363 8.25 5.47363 9.5C5.47363 10.75 5.91113 11.8125 6.78613 12.6875C7.66113 13.5625 8.72363 14 9.97363 14Z" fill="#FAFAFA"/>
</g>
</svg>
